<svg id="visual" viewBox="0 0 900 600" width="900" height="600" xmlns="http://www.w3.org/2000/svg" xmlns:xlink="http://www.w3.org/1999/xlink" version="1.1"><rect x="0" y="0" width="900" height="600" fill="#F7CACA"></rect><path d="M0 259L5.5 258.3C11 257.7 22 256.3 33.2 258.3C44.3 260.3 55.7 265.7 66.8 275.2C78 284.7 89 298.3 100 301.5C111 304.7 122 297.3 133.2 282.2C144.3 267 155.7 244 166.8 237.3C178 230.7 189 240.3 200 249.3C211 258.3 222 266.7 233.2 275.5C244.3 284.3 255.7 293.7 266.8 297.2C278 300.7 289 298.3 300 288.7C311 279 322 262 333.2 264.2C344.3 266.3 355.7 287.7 366.8 299.3C378 311 389 313 400 304.2C411 295.3 422 275.7 433.2 276C444.3 276.3 455.7 296.7 466.8 303.2C478 309.7 489 302.3 500 294.3C511 286.3 522 277.7 533.2 266.3C544.3 255 555.7 241 566.8 239C578 237 589 247 600 253.7C611 260.3 622 263.7 633.2 260C644.3 256.3 655.7 245.7 666.8 241.2C678 236.7 689 238.3 700 235.3C711 232.3 722 224.7 733.2 232.7C744.3 240.7 755.7 264.3 766.8 264C778 263.7 789 239.3 800 235.3C811 231.3 822 247.7 833.2 255.8C844.3 264 855.7 264 866.8 268.3C878 272.7 889 281.3 894.5 285.7L900 290L900 0L894.5 0C889 0 878 0 866.8 0C855.7 0 844.3 0 833.2 0C822 0 811 0 800 0C789 0 778 0 766.8 0C755.7 0 744.3 0 733.2 0C722 0 711 0 700 0C689 0 678 0 666.8 0C655.7 0 644.3 0 633.2 0C622 0 611 0 600 0C589 0 578 0 566.8 0C555.7 0 544.3 0 533.2 0C522 0 511 0 500 0C489 0 478 0 466.8 0C455.7 0 444.3 0 433.2 0C422 0 411 0 400 0C389 0 378 0 366.8 0C355.7 0 344.3 0 333.2 0C322 0 311 0 300 0C289 0 278 0 266.8 0C255.7 0 244.3 0 233.2 0C222 0 211 0 200 0C189 0 178 0 166.8 0C155.7 0 144.3 0 133.2 0C122 0 111 0 100 0C89 0 78 0 66.8 0C55.7 0 44.3 0 33.2 0C22 0 11 0 5.5 0L0 0Z" fill="#c65e54" stroke-linecap="round" stroke-linejoin="miter"></path></svg>